<?xml version="1.0" standalone="no"?>
<!DOCTYPE svg PUBLIC "-//W3C//DTD SVG 20010904//EN"
 "http://www.w3.org/TR/2001/REC-SVG-20010904/DTD/svg10.dtd">
<svg version="1.0" xmlns="http://www.w3.org/2000/svg"
 width="1024.000000pt" height="1024.000000pt" viewBox="0 0 1024.000000 1024.000000"
 preserveAspectRatio="xMidYMid meet">

<g transform="translate(0.000000,1024.000000) scale(0.100000,-0.100000)"
fill="#000000" stroke="none">
<path d="M4906 8214 c-323 -58 -638 -253 -816 -505 -138 -196 -240 -493 -240
-701 l0 -58 -382 0 c-422 0 -470 -5 -575 -59 -122 -61 -222 -183 -263 -321
-12 -38 -37 -210 -60 -415 -41 -352 -79 -671 -170 -1430 -27 -225 -75 -621
-106 -880 -35 -290 -57 -510 -57 -575 0 -395 286 -757 683 -862 l85 -23 2115
0 c1983 0 2119 1 2183 18 411 105 707 468 707 866 0 73 -37 409 -105 966 -14
110 -68 560 -120 1000 -53 440 -109 908 -125 1040 -32 266 -51 343 -108 431
-76 117 -178 191 -307 224 -72 18 -111 20 -461 20 l-382 0 -7 73 c-38 427
-233 768 -569 996 -63 44 -203 112 -293 144 -176 63 -440 85 -627 51z m454
-449 c317 -102 539 -353 595 -671 8 -48 15 -100 15 -115 l0 -29 -848 0 -848 0
7 78 c31 354 289 657 639 752 63 17 98 20 215 16 119 -3 153 -8 225 -31z
m1763 -1249 c42 -17 84 -67 96 -114 6 -20 24 -154 41 -297 17 -143 75 -640
130 -1105 55 -465 123 -1032 150 -1261 52 -432 56 -495 39 -568 -30 -131 -134
-256 -266 -319 l-78 -37 -2115 0 -2115 0 -78 37 c-145 69 -243 199 -268 353
-10 62 -7 105 25 380 33 275 151 1269 191 1605 8 69 31 262 50 430 83 708 94
789 108 817 19 35 54 69 87 82 16 6 712 10 1998 10 1644 1 1978 -1 2005 -13z"/>
<path d="M4054 5566 c-79 -18 -170 -55 -240 -97 -128 -77 -267 -238 -279 -323
-18 -121 71 -216 201 -216 50 0 97 29 131 81 75 111 145 164 258 194 79 20
150 19 224 -4 110 -34 170 -81 244 -190 56 -84 132 -102 228 -53 68 34 99 83
99 160 0 63 -15 95 -86 183 -90 113 -247 213 -399 255 -82 22 -300 28 -381 10z"/>
<path d="M5840 5564 c-192 -41 -364 -156 -474 -317 -96 -140 -30 -302 128
-315 79 -6 118 16 174 102 26 38 66 85 89 102 101 77 256 104 373 64 85 -28
163 -80 199 -133 53 -75 74 -99 105 -118 66 -40 180 -12 233 58 21 28 28 49
31 98 4 55 0 70 -24 116 -36 66 -150 183 -228 234 -78 50 -176 91 -265 110
-89 18 -254 18 -341 -1z"/>
<path d="M3995 4504 c-118 -65 -144 -177 -71 -308 192 -341 529 -574 941 -650
445 -82 932 63 1240 368 142 141 255 325 255 415 0 95 -73 178 -164 188 -104
12 -153 -19 -240 -151 -70 -108 -131 -173 -229 -247 -204 -155 -472 -229 -715
-199 -126 15 -289 69 -398 131 -108 61 -246 195 -329 319 -42 63 -80 107 -103
122 -47 29 -144 35 -187 12z"/>
</g>
</svg>
